<mxfile host="65bd71144e">
    <diagram id="8A6YygVxYqKdhz4-dHaS" name="Page-1">
        <mxGraphModel dx="1130" dy="531" grid="1" gridSize="10" guides="1" tooltips="1" connect="1" arrows="1" fold="1" page="1" pageScale="1" pageWidth="850" pageHeight="1100" math="0" shadow="0">
            <root>
                <mxCell id="0"/>
                <mxCell id="1" parent="0"/>
                <mxCell id="3" style="edgeStyle=none;html=1;exitX=0.5;exitY=1;exitDx=0;exitDy=0;" edge="1" parent="1" source="2">
                    <mxGeometry relative="1" as="geometry">
                        <mxPoint x="440" y="160" as="targetPoint"/>
                    </mxGeometry>
                </mxCell>
                <mxCell id="2" value="Start" style="shape=stencil(tZThDoIgEICfhr8NYT1Ao3oP0jOZBAwo6+1D0S1NXWu4Oba70+8+kRNR5ipuABFcIXpEhGQYhzXEzSTmzkDuY/LBreAXCbHivNU1NKLwPUOoCqzwbZWeED6Ee9qLslwrFSBCKzeqfNQDjAsVnsXPCOvbv0aRCfwbeLC9ZMwicv4du9tvA8428h1jB/vkvunAY+Nsqw+XDJz9j6UsZJYON2UXntdXq++qmJWx7Vytn/fpME6HdVZooS1lpbaw4lMKKeNMr+wgSCmMg8TeA32xffdiX/5dNv7IusQb);whiteSpace=wrap;html=1;" vertex="1" parent="1">
                    <mxGeometry x="380" width="120" height="120" as="geometry"/>
                </mxCell>
                <mxCell id="5" style="edgeStyle=none;html=1;exitX=0.5;exitY=1;exitDx=0;exitDy=0;" edge="1" parent="1" source="4">
                    <mxGeometry relative="1" as="geometry">
                        <mxPoint x="440" y="280" as="targetPoint"/>
                    </mxGeometry>
                </mxCell>
                <mxCell id="4" value="Ask for two integers&lt;br&gt;num_males, num_females" style="whiteSpace=wrap;html=1;" vertex="1" parent="1">
                    <mxGeometry x="360" y="160" width="160" height="60" as="geometry"/>
                </mxCell>
                <mxCell id="7" style="edgeStyle=none;html=1;exitX=0.5;exitY=1;exitDx=0;exitDy=0;" edge="1" parent="1" source="6">
                    <mxGeometry relative="1" as="geometry">
                        <mxPoint x="440" y="400" as="targetPoint"/>
                    </mxGeometry>
                </mxCell>
                <mxCell id="6" value="Add num_males &amp;amp; num_females and place the result in total_students" style="whiteSpace=wrap;html=1;" vertex="1" parent="1">
                    <mxGeometry x="360" y="280" width="160" height="60" as="geometry"/>
                </mxCell>
                <mxCell id="9" style="edgeStyle=none;html=1;exitX=0.5;exitY=1;exitDx=0;exitDy=0;" edge="1" parent="1" source="8">
                    <mxGeometry relative="1" as="geometry">
                        <mxPoint x="440" y="560" as="targetPoint"/>
                    </mxGeometry>
                </mxCell>
                <mxCell id="8" value="Calculate the percentage of namels and females&lt;br&gt;perc_males = num_males / total_students&lt;br&gt;perc_females = num_females / total_students" style="whiteSpace=wrap;html=1;" vertex="1" parent="1">
                    <mxGeometry x="320" y="400" width="240" height="90" as="geometry"/>
                </mxCell>
                <mxCell id="11" style="edgeStyle=none;html=1;exitX=0.5;exitY=1;exitDx=0;exitDy=0;" edge="1" parent="1" source="10">
                    <mxGeometry relative="1" as="geometry">
                        <mxPoint x="440" y="660" as="targetPoint"/>
                    </mxGeometry>
                </mxCell>
                <mxCell id="10" value="Print the percentage of males and females&lt;br&gt;print the total number of students." style="whiteSpace=wrap;html=1;" vertex="1" parent="1">
                    <mxGeometry x="320" y="560" width="240" height="60" as="geometry"/>
                </mxCell>
                <mxCell id="13" value="END" style="ellipse;whiteSpace=wrap;html=1;" vertex="1" parent="1">
                    <mxGeometry x="400" y="670" width="80" height="80" as="geometry"/>
                </mxCell>
            </root>
        </mxGraphModel>
    </diagram>
</mxfile>